
STARTFONT 2.1
FONT -misc-fixed-medium-r-normal--16-120-75-75-c-70-iso10646-1
SIZE 16 75 75
FONTBOUNDINGBOX 16 16 0 -2
STARTPROPERTIES 2
FONT_ASCENT 14
FONT_DESCENT 2
ENDPROPERTIES
CHARS 128

STARTCHAR U+0000
ENCODING 0
SWIDTH 500 0
DWIDTH 8 0
BBX 8 8 0 0
BITMAP
00
00
00
00
00
00
00
00
ENDCHAR

STARTCHAR U+0001
ENCODING 1
SWIDTH 500 0
DWIDTH 8 0
BBX 8 8 0 0
BITMAP
40
40
40
40
00
00
00
00
ENDCHAR

STARTCHAR U+0002
ENCODING 2
SWIDTH 500 0
DWIDTH 8 0
BBX 8 8 0 0
BITMAP
50
50
50
50
00
00
00
00
ENDCHAR

STARTCHAR U+0003
ENCODING 3
SWIDTH 500 0
DWIDTH 8 0
BBX 8 8 0 0
BITMAP
40
40
40
40
00
00
00
00
ENDCHAR

STARTCHAR U+0004
ENCODING 4
SWIDTH 500 0
DWIDTH 8 0
BBX 8 8 0 0
BITMAP
50
50
50
50
00
00
00
00
ENDCHAR

STARTCHAR U+0005
ENCODING 5
SWIDTH 500 0
DWIDTH 8 0
BBX 8 8 0 0
BITMAP
20
20
20
20
00
00
00
00
ENDCHAR

STARTCHAR U+0006
ENCODING 6
SWIDTH 500 0
DWIDTH 8 0
BBX 8 8 0 0
BITMAP
50
50
50
50
00
00
00
00
ENDCHAR

STARTCHAR U+0007
ENCODING 7
SWIDTH 500 0
DWIDTH 8 0
BBX 8 8 0 0
BITMAP
20
20
20
20
00
00
00
00
ENDCHAR

STARTCHAR U+0008
ENCODING 8
SWIDTH 500 0
DWIDTH 8 0
BBX 8 8 0 0
BITMAP
50
50
50
50
00
00
00
00
ENDCHAR

STARTCHAR U+0009
ENCODING 9
SWIDTH 500 0
DWIDTH 8 0
BBX 8 8 0 0
BITMAP
00
00
00
00
10
10
FD
00
ENDCHAR

STARTCHAR U+000a
ENCODING 10
SWIDTH 500 0
DWIDTH 8 0
BBX 8 8 0 0
BITMAP
00
00
00
00
28
28
FD
00
ENDCHAR

STARTCHAR U+000b
ENCODING 11
SWIDTH 500 0
DWIDTH 8 0
BBX 8 8 0 0
BITMAP
00
00
00
00
00
00
FD
10
ENDCHAR

STARTCHAR U+000c
ENCODING 12
SWIDTH 500 0
DWIDTH 8 0
BBX 8 8 0 0
BITMAP
00
00
00
00
00
00
FD
28
ENDCHAR

STARTCHAR U+000d
ENCODING 13
SWIDTH 500 0
DWIDTH 8 0
BBX 8 8 0 0
BITMAP
00
00
00
00
00
00
FD
00
ENDCHAR

STARTCHAR U+000e
ENCODING 14
SWIDTH 500 0
DWIDTH 8 0
BBX 8 8 0 0
BITMAP
20
20
20
20
00
00
00
00
ENDCHAR

STARTCHAR U+000f
ENCODING 15
SWIDTH 500 0
DWIDTH 8 0
BBX 8 8 0 0
BITMAP
00
E4
24
24
2A
50
00
00
ENDCHAR

STARTCHAR U+0010
ENCODING 16
SWIDTH 500 0
DWIDTH 8 0
BBX 8 8 0 0
BITMAP
00
9D
89
89
95
F5
00
00
ENDCHAR

STARTCHAR U+0011
ENCODING 17
SWIDTH 500 0
DWIDTH 8 0
BBX 8 8 0 0
BITMAP
00
89
9D
89
95
E9
00
00
ENDCHAR

STARTCHAR U+0012
ENCODING 18
SWIDTH 500 0
DWIDTH 8 0
BBX 8 8 0 0
BITMAP
00
FD
25
E5
85
E5
00
00
ENDCHAR

STARTCHAR U+0013
ENCODING 19
SWIDTH 500 0
DWIDTH 8 0
BBX 8 8 0 0
BITMAP
00
EE
2A
EA
8A
EE
00
00
ENDCHAR

STARTCHAR U+0014
ENCODING 20
SWIDTH 500 0
DWIDTH 8 0
BBX 8 8 0 0
BITMAP
00
EA
2A
EE
8A
EE
00
00
ENDCHAR

STARTCHAR U+0015
ENCODING 21
SWIDTH 500 0
DWIDTH 8 0
BBX 8 8 0 0
BITMAP
00
E4
24
E4
8A
F2
00
00
ENDCHAR

STARTCHAR U+0016
ENCODING 22
SWIDTH 500 0
DWIDTH 8 0
BBX 8 8 0 0
BITMAP
00
EE
20
EE
88
EE
00
00
ENDCHAR

STARTCHAR U+0017
ENCODING 23
SWIDTH 500 0
DWIDTH 8 0
BBX 8 8 0 0
BITMAP
00
FE
34
F4
94
FE
00
00
ENDCHAR

STARTCHAR U+0018
ENCODING 24
SWIDTH 500 0
DWIDTH 8 0
BBX 8 8 0 0
BITMAP
00
E4
2E
E4
8A
E4
00
00
ENDCHAR

STARTCHAR U+0019
ENCODING 25
SWIDTH 500 0
DWIDTH 8 0
BBX 8 8 0 0
BITMAP
00
A4
A4
E4
AA
EA
00
00
ENDCHAR

STARTCHAR U+001a
ENCODING 26
SWIDTH 500 0
DWIDTH 8 0
BBX 8 8 0 0
BITMAP
00
00
00
00
00
00
00
00
ENDCHAR

STARTCHAR U+001b
ENCODING 27
SWIDTH 500 0
DWIDTH 8 0
BBX 8 8 0 0
BITMAP
00
00
00
00
00
00
00
00
ENDCHAR

STARTCHAR U+001c
ENCODING 28
SWIDTH 500 0
DWIDTH 8 0
BBX 8 8 0 0
BITMAP
00
00
00
00
00
00
00
00
ENDCHAR

STARTCHAR U+001d
ENCODING 29
SWIDTH 500 0
DWIDTH 8 0
BBX 8 8 0 0
BITMAP
00
00
00
00
00
00
00
00
ENDCHAR

STARTCHAR U+001e
ENCODING 30
SWIDTH 500 0
DWIDTH 8 0
BBX 8 8 0 0
BITMAP
00
00
00
00
10
38
7C
FE
ENDCHAR

STARTCHAR U+001f
ENCODING 31
SWIDTH 500 0
DWIDTH 8 0
BBX 8 8 0 0
BITMAP
00
00
00
00
00
00
00
00
ENDCHAR

STARTCHAR U+0020
ENCODING 32
SWIDTH 500 0
DWIDTH 8 0
BBX 8 8 0 0
BITMAP
00
00
00
00
00
00
00
00
ENDCHAR

STARTCHAR U+0021
ENCODING 33
SWIDTH 500 0
DWIDTH 8 0
BBX 8 8 0 0
BITMAP
10
10
10
10
10
00
10
00
ENDCHAR

STARTCHAR U+0022
ENCODING 34
SWIDTH 500 0
DWIDTH 8 0
BBX 8 8 0 0
BITMAP
28
28
28
00
00
00
00
00
ENDCHAR

STARTCHAR U+0023
ENCODING 35
SWIDTH 500 0
DWIDTH 8 0
BBX 8 8 0 0
BITMAP
28
28
7C
28
7C
28
28
00
ENDCHAR

STARTCHAR U+0024
ENCODING 36
SWIDTH 500 0
DWIDTH 8 0
BBX 8 8 0 0
BITMAP
10
3C
50
38
14
78
10
00
ENDCHAR

STARTCHAR U+0025
ENCODING 37
SWIDTH 500 0
DWIDTH 8 0
BBX 8 8 0 0
BITMAP
60
64
08
10
20
4C
0C
00
ENDCHAR

STARTCHAR U+0026
ENCODING 38
SWIDTH 500 0
DWIDTH 8 0
BBX 8 8 0 0
BITMAP
20
50
50
20
54
48
34
00
ENDCHAR

STARTCHAR U+0027
ENCODING 39
SWIDTH 500 0
DWIDTH 8 0
BBX 8 8 0 0
BITMAP
10
10
10
00
00
00
00
00
ENDCHAR

STARTCHAR U+0028
ENCODING 40
SWIDTH 500 0
DWIDTH 8 0
BBX 8 8 0 0
BITMAP
10
20
40
40
40
20
10
00
ENDCHAR

STARTCHAR U+0029
ENCODING 41
SWIDTH 500 0
DWIDTH 8 0
BBX 8 8 0 0
BITMAP
10
08
04
04
04
08
10
00
ENDCHAR

STARTCHAR U+002a
ENCODING 42
SWIDTH 500 0
DWIDTH 8 0
BBX 8 8 0 0
BITMAP
10
54
38
10
38
54
10
00
ENDCHAR

STARTCHAR U+002b
ENCODING 43
SWIDTH 500 0
DWIDTH 8 0
BBX 8 8 0 0
BITMAP
00
10
10
7C
10
10
00
00
ENDCHAR

STARTCHAR U+002c
ENCODING 44
SWIDTH 500 0
DWIDTH 8 0
BBX 8 8 0 0
BITMAP
00
00
00
00
10
10
20
00
ENDCHAR

STARTCHAR U+002d
ENCODING 45
SWIDTH 500 0
DWIDTH 8 0
BBX 8 8 0 0
BITMAP
00
00
00
7C
00
00
00
00
ENDCHAR

STARTCHAR U+002e
ENCODING 46
SWIDTH 500 0
DWIDTH 8 0
BBX 8 8 0 0
BITMAP
00
00
00
00
00
00
10
00
ENDCHAR

STARTCHAR U+002f
ENCODING 47
SWIDTH 500 0
DWIDTH 8 0
BBX 8 8 0 0
BITMAP
00
04
08
10
20
40
00
00
ENDCHAR

STARTCHAR U+0030
ENCODING 48
SWIDTH 500 0
DWIDTH 8 0
BBX 8 8 0 0
BITMAP
38
44
4C
54
64
44
38
00
ENDCHAR

STARTCHAR U+0031
ENCODING 49
SWIDTH 500 0
DWIDTH 8 0
BBX 8 8 0 0
BITMAP
10
30
10
10
10
10
38
00
ENDCHAR

STARTCHAR U+0032
ENCODING 50
SWIDTH 500 0
DWIDTH 8 0
BBX 8 8 0 0
BITMAP
38
44
04
18
20
40
7C
00
ENDCHAR

STARTCHAR U+0033
ENCODING 51
SWIDTH 500 0
DWIDTH 8 0
BBX 8 8 0 0
BITMAP
7C
04
08
18
04
44
38
00
ENDCHAR

STARTCHAR U+0034
ENCODING 52
SWIDTH 500 0
DWIDTH 8 0
BBX 8 8 0 0
BITMAP
08
18
28
48
7C
08
08
00
ENDCHAR

STARTCHAR U+0035
ENCODING 53
SWIDTH 500 0
DWIDTH 8 0
BBX 8 8 0 0
BITMAP
7C
40
78
04
04
44
38
00
ENDCHAR

STARTCHAR U+0036
ENCODING 54
SWIDTH 500 0
DWIDTH 8 0
BBX 8 8 0 0
BITMAP
1C
20
40
78
44
44
38
00
ENDCHAR

STARTCHAR U+0037
ENCODING 55
SWIDTH 500 0
DWIDTH 8 0
BBX 8 8 0 0
BITMAP
7C
04
08
10
20
20
20
00
ENDCHAR

STARTCHAR U+0038
ENCODING 56
SWIDTH 500 0
DWIDTH 8 0
BBX 8 8 0 0
BITMAP
38
44
44
38
44
44
38
00
ENDCHAR

STARTCHAR U+0039
ENCODING 57
SWIDTH 500 0
DWIDTH 8 0
BBX 8 8 0 0
BITMAP
38
44
44
3C
04
08
70
00
ENDCHAR

STARTCHAR U+003a
ENCODING 58
SWIDTH 500 0
DWIDTH 8 0
BBX 8 8 0 0
BITMAP
00
00
10
00
10
00
00
00
ENDCHAR

STARTCHAR U+003b
ENCODING 59
SWIDTH 500 0
DWIDTH 8 0
BBX 8 8 0 0
BITMAP
00
00
10
00
10
10
20
00
ENDCHAR

STARTCHAR U+003c
ENCODING 60
SWIDTH 500 0
DWIDTH 8 0
BBX 8 8 0 0
BITMAP
08
10
20
40
20
10
08
00
ENDCHAR

STARTCHAR U+003d
ENCODING 61
SWIDTH 500 0
DWIDTH 8 0
BBX 8 8 0 0
BITMAP
00
00
7C
00
7C
00
00
00
ENDCHAR

STARTCHAR U+003e
ENCODING 62
SWIDTH 500 0
DWIDTH 8 0
BBX 8 8 0 0
BITMAP
20
10
08
04
08
10
20
00
ENDCHAR

STARTCHAR U+003f
ENCODING 63
SWIDTH 500 0
DWIDTH 8 0
BBX 8 8 0 0
BITMAP
38
44
08
10
10
00
10
00
ENDCHAR

STARTCHAR U+0040
ENCODING 64
SWIDTH 500 0
DWIDTH 8 0
BBX 8 8 0 0
BITMAP
38
44
54
5C
58
40
3C
00
ENDCHAR

STARTCHAR U+0041
ENCODING 65
SWIDTH 500 0
DWIDTH 8 0
BBX 8 8 0 0
BITMAP
10
28
44
44
7C
44
44
00
ENDCHAR

STARTCHAR U+0042
ENCODING 66
SWIDTH 500 0
DWIDTH 8 0
BBX 8 8 0 0
BITMAP
78
44
44
78
44
44
78
00
ENDCHAR

STARTCHAR U+0043
ENCODING 67
SWIDTH 500 0
DWIDTH 8 0
BBX 8 8 0 0
BITMAP
38
44
40
40
40
44
38
00
ENDCHAR

STARTCHAR U+0044
ENCODING 68
SWIDTH 500 0
DWIDTH 8 0
BBX 8 8 0 0
BITMAP
78
44
44
44
44
44
78
00
ENDCHAR

STARTCHAR U+0045
ENCODING 69
SWIDTH 500 0
DWIDTH 8 0
BBX 8 8 0 0
BITMAP
7C
40
40
78
40
40
7C
00
ENDCHAR

STARTCHAR U+0046
ENCODING 70
SWIDTH 500 0
DWIDTH 8 0
BBX 8 8 0 0
BITMAP
7C
40
40
78
40
40
40
00
ENDCHAR

STARTCHAR U+0047
ENCODING 71
SWIDTH 500 0
DWIDTH 8 0
BBX 8 8 0 0
BITMAP
3C
40
40
40
4C
44
3C
00
ENDCHAR

STARTCHAR U+0048
ENCODING 72
SWIDTH 500 0
DWIDTH 8 0
BBX 8 8 0 0
BITMAP
44
44
44
7C
44
44
44
00
ENDCHAR

STARTCHAR U+0049
ENCODING 73
SWIDTH 500 0
DWIDTH 8 0
BBX 8 8 0 0
BITMAP
38
10
10
10
10
10
38
00
ENDCHAR

STARTCHAR U+004a
ENCODING 74
SWIDTH 500 0
DWIDTH 8 0
BBX 8 8 0 0
BITMAP
04
04
04
04
04
44
38
00
ENDCHAR

STARTCHAR U+004b
ENCODING 75
SWIDTH 500 0
DWIDTH 8 0
BBX 8 8 0 0
BITMAP
44
48
50
60
50
48
44
00
ENDCHAR

STARTCHAR U+004c
ENCODING 76
SWIDTH 500 0
DWIDTH 8 0
BBX 8 8 0 0
BITMAP
40
40
40
40
40
40
7C
00
ENDCHAR

STARTCHAR U+004d
ENCODING 77
SWIDTH 500 0
DWIDTH 8 0
BBX 8 8 0 0
BITMAP
44
6C
54
54
44
44
44
00
ENDCHAR

STARTCHAR U+004e
ENCODING 78
SWIDTH 500 0
DWIDTH 8 0
BBX 8 8 0 0
BITMAP
44
44
64
54
4C
44
44
00
ENDCHAR

STARTCHAR U+004f
ENCODING 79
SWIDTH 500 0
DWIDTH 8 0
BBX 8 8 0 0
BITMAP
38
44
44
44
44
44
38
00
ENDCHAR

STARTCHAR U+0050
ENCODING 80
SWIDTH 500 0
DWIDTH 8 0
BBX 8 8 0 0
BITMAP
78
44
44
78
40
40
40
00
ENDCHAR

STARTCHAR U+0051
ENCODING 81
SWIDTH 500 0
DWIDTH 8 0
BBX 8 8 0 0
BITMAP
38
44
44
44
54
48
34
00
ENDCHAR

STARTCHAR U+0052
ENCODING 82
SWIDTH 500 0
DWIDTH 8 0
BBX 8 8 0 0
BITMAP
78
44
44
78
50
48
44
00
ENDCHAR

STARTCHAR U+0053
ENCODING 83
SWIDTH 500 0
DWIDTH 8 0
BBX 8 8 0 0
BITMAP
38
44
40
38
04
44
38
00
ENDCHAR

STARTCHAR U+0054
ENCODING 84
SWIDTH 500 0
DWIDTH 8 0
BBX 8 8 0 0
BITMAP
7C
10
10
10
10
10
10
00
ENDCHAR

STARTCHAR U+0055
ENCODING 85
SWIDTH 500 0
DWIDTH 8 0
BBX 8 8 0 0
BITMAP
44
44
44
44
44
44
38
00
ENDCHAR

STARTCHAR U+0056
ENCODING 86
SWIDTH 500 0
DWIDTH 8 0
BBX 8 8 0 0
BITMAP
44
44
44
44
44
28
10
00
ENDCHAR

STARTCHAR U+0057
ENCODING 87
SWIDTH 500 0
DWIDTH 8 0
BBX 8 8 0 0
BITMAP
44
44
44
44
54
6C
44
00
ENDCHAR

STARTCHAR U+0058
ENCODING 88
SWIDTH 500 0
DWIDTH 8 0
BBX 8 8 0 0
BITMAP
44
44
28
10
28
44
44
00
ENDCHAR

STARTCHAR U+0059
ENCODING 89
SWIDTH 500 0
DWIDTH 8 0
BBX 8 8 0 0
BITMAP
44
44
28
10
10
10
10
00
ENDCHAR

STARTCHAR U+005a
ENCODING 90
SWIDTH 500 0
DWIDTH 8 0
BBX 8 8 0 0
BITMAP
7C
04
08
10
20
40
7C
00
ENDCHAR

STARTCHAR U+005b
ENCODING 91
SWIDTH 500 0
DWIDTH 8 0
BBX 8 8 0 0
BITMAP
7C
60
60
60
60
60
7C
00
ENDCHAR

STARTCHAR U+005c
ENCODING 92
SWIDTH 500 0
DWIDTH 8 0
BBX 8 8 0 0
BITMAP
00
85
54
FE
54
54
28
00
ENDCHAR

STARTCHAR U+005d
ENCODING 93
SWIDTH 500 0
DWIDTH 8 0
BBX 8 8 0 0
BITMAP
7C
0C
0C
0C
0C
0C
7C
00
ENDCHAR

STARTCHAR U+005e
ENCODING 94
SWIDTH 500 0
DWIDTH 8 0
BBX 8 8 0 0
BITMAP
7C
04
04
04
04
00
00
00
ENDCHAR

STARTCHAR U+005f
ENCODING 95
SWIDTH 500 0
DWIDTH 8 0
BBX 8 8 0 0
BITMAP
7D
15
15
29
00
00
00
00
ENDCHAR

STARTCHAR U+0060
ENCODING 96
SWIDTH 500 0
DWIDTH 8 0
BBX 8 8 0 0
BITMAP
40
40
40
40
7C
00
00
00
ENDCHAR

STARTCHAR U+0061
ENCODING 97
SWIDTH 500 0
DWIDTH 8 0
BBX 8 8 0 0
BITMAP
7C
40
40
40
7C
00
00
00
ENDCHAR

STARTCHAR U+0062
ENCODING 98
SWIDTH 500 0
DWIDTH 8 0
BBX 8 8 0 0
BITMAP
7C
50
50
50
7C
00
00
00
ENDCHAR

STARTCHAR U+0063
ENCODING 99
SWIDTH 500 0
DWIDTH 8 0
BBX 8 8 0 0
BITMAP
7C
04
7C
40
7C
00
00
00
ENDCHAR

STARTCHAR U+0064
ENCODING 100
SWIDTH 500 0
DWIDTH 8 0
BBX 8 8 0 0
BITMAP
7C
44
44
44
7C
00
00
00
ENDCHAR

STARTCHAR U+0065
ENCODING 101
SWIDTH 500 0
DWIDTH 8 0
BBX 8 8 0 0
BITMAP
44
44
7C
44
7C
00
00
00
ENDCHAR

STARTCHAR U+0066
ENCODING 102
SWIDTH 500 0
DWIDTH 8 0
BBX 8 8 0 0
BITMAP
54
54
7C
54
7C
00
00
00
ENDCHAR

STARTCHAR U+0067
ENCODING 103
SWIDTH 500 0
DWIDTH 8 0
BBX 8 8 0 0
BITMAP
10
10
10
28
44
00
00
00
ENDCHAR

STARTCHAR U+0068
ENCODING 104
SWIDTH 500 0
DWIDTH 8 0
BBX 8 8 0 0
BITMAP
28
28
54
92
00
00
00
00
ENDCHAR

STARTCHAR U+0069
ENCODING 105
SWIDTH 500 0
DWIDTH 8 0
BBX 8 8 0 0
BITMAP
38
44
44
44
38
00
00
00
ENDCHAR

STARTCHAR U+006a
ENCODING 106
SWIDTH 500 0
DWIDTH 8 0
BBX 8 8 0 0
BITMAP
7C
10
10
28
44
00
00
00
ENDCHAR

STARTCHAR U+006b
ENCODING 107
SWIDTH 500 0
DWIDTH 8 0
BBX 8 8 0 0
BITMAP
FD
29
51
A9
45
00
00
00
ENDCHAR

STARTCHAR U+006c
ENCODING 108
SWIDTH 500 0
DWIDTH 8 0
BBX 8 8 0 0
BITMAP
10
7C
10
28
44
00
00
00
ENDCHAR

STARTCHAR U+006d
ENCODING 109
SWIDTH 500 0
DWIDTH 8 0
BBX 8 8 0 0
BITMAP
7D
05
7D
05
09
00
00
00
ENDCHAR

STARTCHAR U+006e
ENCODING 110
SWIDTH 500 0
DWIDTH 8 0
BBX 8 8 0 0
BITMAP
7C
00
7C
40
7C
00
00
00
ENDCHAR

STARTCHAR U+006f
ENCODING 111
SWIDTH 500 0
DWIDTH 8 0
BBX 8 8 0 0
BITMAP
7C
28
28
28
7C
00
00
00
ENDCHAR

STARTCHAR U+0070
ENCODING 112
SWIDTH 500 0
DWIDTH 8 0
BBX 8 8 0 0
BITMAP
10
7C
38
44
38
00
00
00
ENDCHAR

STARTCHAR U+0071
ENCODING 113
SWIDTH 500 0
DWIDTH 8 0
BBX 8 8 0 0
BITMAP
40
40
40
78
40
40
40
40
ENDCHAR

STARTCHAR U+0072
ENCODING 114
SWIDTH 500 0
DWIDTH 8 0
BBX 8 8 0 0
BITMAP
50
50
50
70
50
50
50
50
ENDCHAR

STARTCHAR U+0073
ENCODING 115
SWIDTH 500 0
DWIDTH 8 0
BBX 8 8 0 0
BITMAP
40
40
78
40
40
78
40
40
ENDCHAR

STARTCHAR U+0074
ENCODING 116
SWIDTH 500 0
DWIDTH 8 0
BBX 8 8 0 0
BITMAP
50
50
70
50
50
70
50
50
ENDCHAR

STARTCHAR U+0075
ENCODING 117
SWIDTH 500 0
DWIDTH 8 0
BBX 8 8 0 0
BITMAP
20
20
20
E0
20
20
20
20
ENDCHAR

STARTCHAR U+0076
ENCODING 118
SWIDTH 500 0
DWIDTH 8 0
BBX 8 8 0 0
BITMAP
50
50
50
D0
50
50
50
50
ENDCHAR

STARTCHAR U+0077
ENCODING 119
SWIDTH 500 0
DWIDTH 8 0
BBX 8 8 0 0
BITMAP
20
20
E0
20
20
E0
20
20
ENDCHAR

STARTCHAR U+0078
ENCODING 120
SWIDTH 500 0
DWIDTH 8 0
BBX 8 8 0 0
BITMAP
50
50
D0
50
50
D0
50
50
ENDCHAR

STARTCHAR U+0079
ENCODING 121
SWIDTH 500 0
DWIDTH 8 0
BBX 8 8 0 0
BITMAP
10
10
10
FD
00
00
00
00
ENDCHAR

STARTCHAR U+007a
ENCODING 122
SWIDTH 500 0
DWIDTH 8 0
BBX 8 8 0 0
BITMAP
28
28
28
FD
00
00
00
00
ENDCHAR

STARTCHAR U+007b
ENCODING 123
SWIDTH 500 0
DWIDTH 8 0
BBX 8 8 0 0
BITMAP
FD
10
10
10
10
00
00
00
ENDCHAR

STARTCHAR U+007c
ENCODING 124
SWIDTH 500 0
DWIDTH 8 0
BBX 8 8 0 0
BITMAP
FD
28
28
28
28
00
00
00
ENDCHAR

STARTCHAR U+007d
ENCODING 125
SWIDTH 500 0
DWIDTH 8 0
BBX 8 8 0 0
BITMAP
00
00
FD
00
00
00
00
00
ENDCHAR

STARTCHAR U+007e
ENCODING 126
SWIDTH 500 0
DWIDTH 8 0
BBX 8 8 0 0
BITMAP
20
20
20
20
20
20
20
20
ENDCHAR

STARTCHAR U+007f
ENCODING 127
SWIDTH 500 0
DWIDTH 8 0
BBX 8 8 0 0
BITMAP
FF
FF
FF
FF
FF
FF
FF
FF
ENDCHAR
ENDFONT
